<?xml version="1.0" encoding="UTF-8"?>
<svg id="Layer_1" data-name="Layer 1" xmlns="http://www.w3.org/2000/svg" xmlns:xlink="http://www.w3.org/1999/xlink" viewBox="0 0 320 320">
  <defs>
    <style>
      .cls-1 {
        fill: none;
      }

      .cls-2 {
        fill: #f2e8d9;
      }

      .cls-3 {
        clip-path: url(#clippath-1);
      }

      .cls-4 {
        clip-path: url(#clippath);
      }
    </style>
    <clipPath id="clippath">
      <rect class="cls-1" x="26" y="53.81" width="268" height="200.55"/>
    </clipPath>
    <clipPath id="clippath-1">
      <rect class="cls-1" x="26" y="53.81" width="268" height="200.55"/>
    </clipPath>
  </defs>
  <g id="Nebyan_Dogal-3" data-name="Nebyan Dogal-3">
    <g class="cls-4">
      <g class="cls-3">
        <path class="cls-2" d="M115.95,245.65c-.1-.1-.14-.21-.14-.35v-22.54c0-.14.05-.25.14-.35.1-.1.21-.14.35-.14h6.93c2.34,0,4.22.61,5.65,1.81,1.43,1.21,2.14,2.82,2.14,4.83v10.23c0,1.98-.71,3.59-2.14,4.81-1.43,1.22-3.31,1.83-5.65,1.83h-6.93c-.14,0-.25-.05-.35-.14M121.76,240.86l1.34-.04c.63-.03,1.13-.23,1.53-.61.39-.38.6-.87.63-1.47v-9.5c0-.63-.2-1.12-.59-1.49-.39-.37-.93-.55-1.61-.55h-1.3c-.14,0-.2.07-.2.2v13.25c0,.14.07.2.2.2"/>
        <path class="cls-2" d="M136.2,244.1c-1.4-1.32-2.1-3.13-2.1-5.44v-9.25c0-2.34.7-4.16,2.1-5.46,1.4-1.3,3.29-1.96,5.69-1.96s4.29.65,5.69,1.96c1.4,1.3,2.1,3.13,2.1,5.46v9.25c0,2.31-.7,4.12-2.1,5.44-1.4,1.32-3.3,1.98-5.69,1.98s-4.29-.66-5.69-1.98M143.93,238.9v-9.74c0-1.49-.68-2.24-2.04-2.24-.65,0-1.16.19-1.51.57-.35.38-.53.94-.53,1.67v9.74c0,.73.18,1.29.53,1.67.35.38.86.57,1.51.57,1.36,0,2.04-.75,2.04-2.24"/>
        <path class="cls-2" d="M154.81,244.22c-1.39-1.24-2.08-2.93-2.08-5.07v-10.27c0-2.15.69-3.83,2.08-5.06,1.39-1.22,3.25-1.83,5.58-1.83s4.21.63,5.63,1.88c1.41,1.25,2.12,2.95,2.12,5.09v.86c0,.14-.05.25-.14.35-.1.09-.21.14-.35.14h-4.77c-.14,0-.25-.05-.35-.14-.1-.1-.14-.21-.14-.35v-.94c0-.63-.18-1.11-.53-1.45-.35-.34-.84-.51-1.47-.51-.57,0-1.03.17-1.39.51-.35.34-.53.82-.53,1.45v10.31c0,.6.18,1.07.53,1.41.35.34.81.51,1.39.51.62,0,1.11-.17,1.47-.51.35-.34.53-.81.53-1.41v-2.08c0-.14-.07-.2-.2-.2h-1.14c-.14,0-.25-.05-.35-.14s-.14-.21-.14-.35v-2.98c0-.14.05-.25.14-.35.1-.1.21-.14.35-.14h6.6c.13,0,.25.05.35.14.09.1.14.21.14.35v5.71c0,2.15-.71,3.84-2.12,5.07-1.41,1.24-3.29,1.85-5.63,1.85s-4.2-.62-5.58-1.85M157.03,219.62c-.88-.79-1.38-1.84-1.49-3.14v-.08c0-.27.15-.41.45-.41h2.04c.3,0,.47.16.53.49.08.54.29.98.61,1.3.33.33.73.49,1.22.49s.9-.16,1.24-.49c.34-.33.55-.76.63-1.3.03-.33.2-.49.53-.49h2.04c.33,0,.49.16.49.49-.14,1.3-.65,2.35-1.53,3.14-.88.79-2.02,1.18-3.4,1.18s-2.48-.39-3.36-1.18"/>
        <path class="cls-2" d="M182.11,245.34l-.45-2.73c0-.14-.08-.2-.24-.2h-4.44c-.14,0-.22.05-.24.16l-.57,2.77c-.06.3-.23.45-.53.45h-4.73c-.38,0-.53-.18-.45-.53l5.42-22.58c.08-.27.27-.41.57-.41h5.5c.3,0,.49.14.57.41l5.46,22.58v.16c0,.24-.15.37-.45.37h-4.89c-.33,0-.5-.15-.53-.45M177.87,237.97h2.73c.14,0,.19-.07.16-.2l-1.3-7.66c-.03-.08-.07-.12-.12-.12s-.1.04-.12.12l-1.55,7.66c-.03.14.04.2.2.2"/>
        <path class="cls-2" d="M191.21,245.65c-.1-.1-.14-.21-.14-.35v-22.54c0-.14.05-.25.14-.35.1-.09.21-.14.35-.14h4.77c.14,0,.25.05.35.14.1.1.14.21.14.35v17.89c0,.14.07.2.2.2h7.74c.14,0,.25.05.35.14.1.1.14.21.14.35v3.95c0,.14-.05.25-.14.35-.1.1-.21.14-.35.14h-13.21c-.14,0-.25-.05-.35-.14"/>
        <rect class="cls-2" x="201.05" y="71.62" width="4.1" height="79.11" transform="translate(-24.24 155.03) rotate(-39.61)"/>
        <path class="cls-2" d="M84.69,143.69h-21.46c-1.13,0-2.05-.92-2.05-2.05s.92-2.05,2.05-2.05h21.46c1.63,0,3.22-.66,4.37-1.82l9.81-9.92c1.15-1.15,2.66-1.77,4.27-1.77s3.12.63,4.26,1.77l.72.72c.79-.03,2.9-1.17,3.94-2.29l29.44-31.05c.49-.53,1.13-.93,1.84-1.14,1.6-.47,3.38.17,4.43,1.61l8.8,12.25c.66.92.45,2.2-.47,2.86-.92.66-2.2.45-2.86-.47l-8.8-12.24h0s-29.39,30.98-29.39,30.98c-1.34,1.45-4.39,3.53-6.91,3.58-1.4,0-2.27-.55-2.76-1.04l-.87-.87c-.73-.73-2-.73-2.73,0l-9.8,9.91c-1.91,1.93-4.57,3.04-7.28,3.04"/>
        <path class="cls-2" d="M256.85,143.69h-28.53c-2.18,0-4.34-.57-6.24-1.64l-13.11-7.4c-.26-.18-.54-.23-.67-.16l-.1.06-3.78,2.62c-1.8,1.25-4.21,1-5.72-.6l-.22-.27-5.28-7.92-2.29,4.14c-.68.85-1.72,1.27-2.81,1.12-.9-.13-1.67-.63-2.14-1.38l-7.32-7.11c-1.34-1.3-.95-3.22,1.15-10.19.44-1.48,1.05-3.48,1.13-4.07-.05-.55-.09-1.14-.13-1.74-.1-1.4-.21-2.98-.42-3.89-1.77-1.04-2.89-2.9-2.99-4.96l-.86-17.48-38.57,53.17-.18.16c-1.63,1.4-3.73,1.7-5.35.77-1.64-.94-2.41-2.86-2.02-5.01l.03-.12,8.24-33.18c.27-1.1,1.38-1.76,2.48-1.49,1.1.27,1.77,1.38,1.49,2.48l-8.22,33.11c-.07.44.02.64.05.68.02,0,.2-.01.47-.21l38.96-53.69.12-.12c1.03-1.01,2.52-1.37,3.89-.93,1.38.44,2.39,1.59,2.64,3.01l.03.26.91,18.41c.03.68.4,1.3.99,1.65.97.58,1.67,1.53,1.91,2.61.27,1.2.39,2.87.5,4.48.04.62.09,1.22.14,1.78.08.86-.25,2.05-1.3,5.51-.57,1.87-1.57,5.19-1.73,6.54l6.31,6.12,1.83-3.29c.7-.89,1.76-1.43,2.89-1.48,1.13-.04,2.23.39,3.01,1.22l.22.27,5.51,8.27c.1.06.23.06.33-.01l3.78-2.62c.2-.14.43-.27.66-.38,1.46-.7,3.26-.53,4.71.44l12.86,7.25c1.29.73,2.75,1.11,4.23,1.11h28.53c1.13,0,2.05.92,2.05,2.05s-.92,2.05-2.05,2.05M180.93,110.99s0,.01,0,.02c0,0,0-.01,0-.02"/>
        <path class="cls-2" d="M228.58,141.64c-1.84,0-3.64-.47-5.24-1.38l-12.94-7.3c-.8-.56-1.86-.76-2.74-.33-.13.06-.25.13-.38.22l-3.78,2.62c-.96.66-2.26.53-3.06-.32l-5.65-8.48c-.78-.82-2.1-.76-2.8.12l-2.43,4.45c-.47.59-1.4.46-1.69-.24l-7.54-7.33c-.98-.95,3.03-11.5,2.91-12.86-.18-1.95-.27-4.51-.6-6-.12-.55-.48-1.01-.96-1.3-1.17-.7-1.92-1.94-1.99-3.31l-.91-18.41,49.79,59.84Z"/>
        <path class="cls-2" d="M65.26,141.88l-4.07-.49c5.98-49.93,48.48-87.59,98.84-87.59s92.86,37.66,98.85,87.59l-4.07.49c-5.74-47.88-46.48-83.98-94.78-83.98s-89.04,36.1-94.78,83.98"/>
        <path class="cls-2" d="M154.91,109.14l-18.48,25.47c-2.07,1.78-4.54.47-4.02-2.32l8.24-33.18,2.34-2.46c.26-.28.59-.48.94-.58.81-.24,1.69.16,2.19.85l8.8,12.24Z"/>
        <polygon class="cls-2" points="70.13 158.06 70.13 204.26 60.75 204.26 37.38 177.5 37.38 204.26 26 204.26 26 158.06 35.45 158.06 58.82 185.64 58.82 158.06 70.13 158.06"/>
        <polygon class="cls-2" points="114.32 194.47 114.32 204.26 78.32 204.26 78.32 158.06 114.11 158.06 114.11 167.85 89.7 167.85 89.7 176.54 112.11 176.54 112.11 185.78 89.7 185.78 89.7 194.47 114.32 194.47"/>
        <path class="cls-2" d="M151.87,180.68c4.76.34,8.89,4.21,8.89,10.62,0,7.93-5.38,12.96-15.24,12.96h-24v-46.2h23.93c8.48,0,14,4.97,14,12.62,0,2.9-.83,5.17-2.41,6.9-1.59,1.72-3.31,2.62-5.17,2.83v.28ZM132.91,167.23v9.93h9.93c3.38,0,5.59-2.07,5.59-5.17,0-2.83-2.21-4.76-5.17-4.76h-10.34ZM132.91,195.09h10.62c3.59,0,5.65-1.93,5.65-5.17,0-3.03-2.21-4.96-5.45-4.96h-10.83v10.14Z"/>
        <polygon class="cls-2" points="188.68 189.78 188.68 204.26 177.09 204.26 177.09 189.92 159.24 158.06 171.65 158.06 183.03 178.33 194.26 158.06 206.95 158.06 188.68 189.78"/>
        <path class="cls-2" d="M246.44,204.26h-12.14l-3.24-8.41h-19.44l-3.24,8.41h-12.21l19.31-46.2h11.65l19.31,46.2ZM227.27,186.05l-5.93-15.17-5.86,15.17h11.79Z"/>
        <polygon class="cls-2" points="294 158.06 294 204.26 284.62 204.26 261.25 177.5 261.25 204.26 249.87 204.26 249.87 158.06 259.32 158.06 282.69 185.64 282.69 158.06 294 158.06"/>
        <polygon class="cls-2" points="113.18 84.77 123.24 82.87 133.27 84.77 123.23 86.67 113.18 84.77"/>
        <polygon class="cls-2" points="123.22 95.18 121.4 84.76 123.23 74.36 125.06 84.77 123.22 95.18"/>
        <polygon class="cls-2" points="118.7 89.45 122.41 83.91 127.75 80.09 124.05 85.62 118.7 89.45"/>
        <polygon class="cls-2" points="127.75 89.45 122.4 85.62 118.71 80.08 124.05 83.91 127.75 89.45"/>
      </g>
    </g>
  </g>
</svg>